<svg width="32" height="32" viewBox="0 0 32 32" fill="none" xmlns="http://www.w3.org/2000/svg">
<path d="M11.3334 15.3333C14.2667 15.3333 16.6667 12.9333 16.6667 10C16.6667 7.06667 14.2667 4.66667 11.3334 4.66667C8.40004 4.66667 6.00004 7.06667 6.00004 10C6.00004 12.9333 8.40004 15.3333 11.3334 15.3333ZM17.3334 14.1333C19.6 16 22.9334 15.6 24.8 13.3333C26.6667 11.0667 26.2667 7.73334 24 5.86667C23.0667 5.06667 21.8667 4.66667 20.6667 4.66667C19.4667 4.66667 18.2667 5.06667 17.3334 5.86667C19.6 7.73334 20 10.9333 18.1334 13.3333C18 13.6 17.6 13.8667 17.3334 14.1333ZM30.5334 25.8667C29.7334 20.9333 25.6 17.3333 20.6667 17.3333C19.4667 17.3333 18.4 17.4667 17.3334 17.8667C20.8 19.0667 23.3334 22.1333 23.8667 25.7333C24 26.4 23.4667 27.2 22.6667 27.2H22.5334H29.2C30 27.2 30.5334 26.6667 30.5334 25.8667C30.5334 26 30.5334 25.8667 30.5334 25.8667ZM11.3334 17.3333C6.40004 17.3333 2.13337 20.9333 1.46671 25.8667C1.33337 26.5333 1.86671 27.3333 2.66671 27.3333H2.80004H19.8667C20.6667 27.3333 21.2 26.8 21.2 26V25.8667C20.5334 20.9333 16.2667 17.3333 11.3334 17.3333Z" fill="#374557"/>
</svg>
